<?xml version="1.0" encoding="UTF-8" standalone="no"?>
<!DOCTYPE svg PUBLIC "-//W3C//DTD SVG 1.1//EN" "http://www.w3.org/Graphics/SVG/1.1/DTD/svg11.dtd">
<svg width="100%" height="100%" viewBox="0 0 150 150" version="1.1" xmlns="http://www.w3.org/2000/svg" xmlns:xlink="http://www.w3.org/1999/xlink" xml:space="preserve" xmlns:serif="http://www.serif.com/" style="fill-rule:evenodd;clip-rule:evenodd;stroke-linejoin:round;stroke-miterlimit:2;">
    <g transform="matrix(2,0,0,2,-77.7832,-83.2279)">
        <g transform="matrix(1,0,0,0.717647,37.5,48.0882)">
            <path d="M13.892,52.254L13.892,47.9L45.142,47.9L45.142,52.254L13.892,52.254ZM13.892,30.482L63.892,30.482L63.892,34.836L13.892,34.836L13.892,30.482ZM54.517,13.064L54.517,17.418L13.892,17.418L13.892,13.064L54.517,13.064Z" style="fill-rule:nonzero;"/>
        </g>
        <g transform="matrix(0.456,0,0,0.477176,68.4644,76.7647)">
            <path d="M43.406,22.79L67.254,22.79L67.254,27.506L43.406,27.506L43.406,50.296L38.471,50.296L38.471,27.506L14.623,27.506L14.623,22.79L38.471,22.79L38.471,0L43.406,0L43.406,22.79Z" style="fill:rgb(107,0,0);fill-rule:nonzero;"/>
        </g>
    </g>
</svg>
