<?xml version="1.0" encoding="utf-8"?>
<!DOCTYPE svg PUBLIC "-//W3C//DTD SVG 1.1//EN" "http://www.w3.org/Graphics/SVG/1.1/DTD/svg11.dtd">
<svg xmlns="http://www.w3.org/2000/svg" xmlns:xlink="http://www.w3.org/1999/xlink" version="1.1" baseProfile="full" width="300" height="300" viewBox="0 0 300.00 300.00" enable-background="new 0 0 300.00 300.00" xml:space="preserve">
	<path fill="#150049" fill-opacity="1" stroke-width="0.2" stroke-linejoin="round" d="M 2.04373,145.759C 3.01619,108.586 20.1193,69.4587 46.9237,43.4879C 62.0054,28.8752 80.6626,17.2386 100.49,10.1542C 116.547,4.41739 133.865,1.66739 150.927,1.45633C 168.258,1.67416 185.857,4.51477 202.133,10.4312C 222.231,17.7372 241.1,29.7392 256.234,44.7656C 271.368,59.7921 283.456,78.5266 290.814,98.4819C 296.773,114.642 299.634,132.116 299.853,149.323L 299.853,149.396L 283.618,149.396L 283.618,149.323C 283.423,133.992 280.878,118.423 275.569,104.024C 269.012,86.2438 258.238,69.5529 244.754,56.1641C 231.269,42.7753 214.459,32.078 196.551,25.5684C 182.05,20.297 166.369,17.7702 150.927,17.5763C 135.725,17.7642 120.294,20.2104 105.988,25.3217C 88.3218,31.6339 71.7003,42.0052 58.2626,55.0249C 34.3734,78.1712 19.1403,113.047 18.2736,146.177L 2.04373,145.759 Z "/>
	<path fill="#150049" fill-opacity="1" stroke-width="0.2" stroke-linejoin="round" d="M 299.853,148.973C 299.853,167.482 296.358,186.325 289.52,203.544C 282.105,222.217 270.529,239.688 256.234,253.881C 241.1,268.908 222.231,280.91 202.133,288.216C 185.857,294.132 168.258,296.973 150.927,297.19C 133.596,296.973 115.998,294.132 99.7218,288.216C 79.6237,280.91 60.755,268.908 45.621,253.881C 30.487,238.855 18.399,220.12 11.0408,200.165C 5.08198,184.005 2.22098,166.531 2.00165,149.323L 2.01445,147.366L 2.05273,145.415L 2.05466,145.341L 18.2845,145.759L 18.2826,145.833L 18.2484,147.576L 18.237,149.323C 18.4324,164.655 20.9772,180.224 26.2863,194.623C 32.8426,212.403 43.6164,229.094 57.1011,242.483C 70.5858,255.872 87.3961,266.569 105.304,273.078C 119.805,278.35 135.486,280.877 150.927,281.071C 166.369,280.877 182.05,278.35 196.551,273.078C 214.459,266.569 231.269,255.872 244.754,242.483C 268.768,218.639 283.618,182.693 283.618,148.973L 299.853,148.973 Z "/>
	<line fill="none" stroke-width="0.2" stroke-linejoin="round" x1="119.961" y1="151.454" x2="122.853" y2="149.803"/>
	<g>
		<path fill="#000942" fill-opacity="1" stroke-width="10" stroke-linejoin="round" stroke="#FFFFFF" stroke-opacity="1" d="M 138.248,83.7659L 71.584,50.9913L 71.584,246.991L 139.072,213.812"/>
		<path fill="#000942" fill-opacity="1" stroke-width="10" stroke-linejoin="round" stroke="#FFFFFF" stroke-opacity="1" d="M 170.384,198.417L 270.917,148.991L 170.539,99.6415"/>
	</g>
</svg>
